<svg xmlns="http://www.w3.org/2000/svg" width="182" height="58" viewBox="0 0 182 58" fill="none"><g clip-path="url(#clip0_354_553)"><path d="M18.3692 37.5313V15.3916L31.2133 22.7163V28.9359L25.3251 25.5779V33.0094L18.3692 37.5313ZM32.7507 41.3645V31.5733L39.7066 35.5399V36.8426C37.3897 38.3481 35.0676 39.859 32.7507 41.3645ZM26.8625 28.2152L31.2186 30.6977V42.3629C31.2186 47.5735 31.2186 52.7841 31.2186 57.9947C46.2407 56.8789 58.0811 44.3435 58.0811 29.0374C58.0758 12.9998 45.0769 0 29.0406 0C12.9989 0 0 12.9998 0 29.0427C0 44.3489 11.8404 56.8895 26.8625 58C26.8625 48.07 26.8625 38.1452 26.8625 28.2152ZM18.3692 54.3964V39.3625L25.3251 34.8352V56.2916C22.8908 55.9659 20.5579 55.32 18.3692 54.3964ZM12.481 51.0009V43.1904L16.8371 40.3555V53.6916C15.2943 52.9282 13.8423 52.026 12.481 51.0009ZM47.1322 49.7517V32.011L41.244 35.8443V34.6537L32.756 29.8115V21.8301L16.8425 12.7542V38.535L10.9436 42.3682V49.757C5.17819 44.7119 1.53744 37.3017 1.53744 29.0427C1.53744 13.8487 13.8477 1.53756 29.0406 1.53756C44.2281 1.53756 56.5437 13.854 56.5437 29.0427C56.5383 37.3017 52.8976 44.7119 47.1322 49.7517ZM41.244 53.697V37.6701L45.6001 34.8352V51.0009C44.2388 52.026 42.7814 52.9335 41.244 53.697ZM32.7507 56.2969V43.1904L39.7066 38.6684V54.3964C37.5178 55.32 35.185 55.9659 32.7507 56.2969Z" fill="#59585D"></path><path d="M182 26.8176V21.4415H176.55V23.4008H179.822V25.7979C179.037 26.3798 177.937 26.7642 176.731 26.7642C174.115 26.7642 172.38 24.8262 172.38 22.1729C172.38 19.685 174.174 17.635 176.534 17.635C178.162 17.635 179.128 18.1635 180.116 19.007L181.541 17.3093C180.222 16.1935 178.85 15.5742 176.619 15.5742C172.759 15.5742 170.015 18.612 170.015 22.2156C170.015 25.9634 172.647 28.8196 176.656 28.8196C178.925 28.8143 180.735 27.896 182 26.8176ZM162.051 24.6447L155.191 15.7931H153.109V28.5954H155.319V19.4875L162.376 28.5954H164.261V15.7931H162.051V24.6447ZM144.402 15.7931V28.5954H146.649V15.7931H144.402ZM136.16 22.2103C136.16 24.7355 134.403 26.5453 131.718 26.5453H129.193V17.8378H131.718C134.403 17.8378 136.16 19.685 136.16 22.2103ZM138.519 22.1729C138.519 18.5532 135.738 15.7931 131.718 15.7931H126.946V28.5954H131.718C135.738 28.5954 138.519 25.7979 138.519 22.1729ZM112.591 28.5954H121.57V26.5453H114.838V15.7931H112.591V28.5954ZM103.889 15.7931V28.5954H106.137V15.7931H103.889ZM97.6382 15.7931H95.3908V23.1606C95.3908 25.5203 94.1629 26.7268 92.1717 26.7268C90.1592 26.7268 88.9367 25.4455 88.9367 23.0698V15.7931H86.6893V23.1606C86.6893 26.871 88.8086 28.7929 92.1397 28.7929C95.4868 28.7929 97.6435 26.871 97.6435 23.0484V15.7931H97.6382ZM76.5891 26.5987H72.8576V23.0858H76.4236C78.196 23.0858 79.0554 23.7265 79.0554 24.8209C79.0608 25.9954 78.1266 26.5987 76.5891 26.5987ZM75.9325 21.1852H72.8576V17.7845H76.0927C77.5393 17.7845 78.3401 18.3877 78.3401 19.4288C78.3454 20.6193 77.3739 21.1852 75.9325 21.1852ZM76.3863 15.7931H70.6422V28.5954H76.5678C79.4184 28.5954 81.3029 27.3675 81.3029 25.0665C81.3029 23.31 80.2619 22.4505 78.7618 21.938C79.712 21.4468 80.5929 20.6407 80.5929 19.0657C80.5929 17.053 78.9647 15.7931 76.3863 15.7931Z" fill="#59585D"></path><path d="M159.114 39.1362H160V45.8767H159.287L155.853 40.8424V45.8767H154.967V39.1362H155.654L159.114 44.1965V39.1362ZM146.961 44.3716C147.455 44.8777 148.065 45.1242 148.797 45.1242C149.529 45.1242 150.139 44.8712 150.633 44.3716C151.128 43.8656 151.372 43.2428 151.372 42.5097C151.372 41.7637 151.128 41.1409 150.633 40.6348C150.139 40.1288 149.529 39.8823 148.797 39.8823C148.065 39.8823 147.455 40.1353 146.961 40.6348C146.467 41.1409 146.223 41.7637 146.223 42.5097C146.223 43.2428 146.467 43.8656 146.961 44.3716ZM151.25 44.9815C150.582 45.6627 149.76 46 148.797 46C147.828 46 147.012 45.6627 146.345 44.9815C145.677 44.3003 145.343 43.4764 145.343 42.5032C145.343 41.5301 145.677 40.6997 146.345 40.025C147.012 39.3503 147.828 39.0065 148.797 39.0065C149.76 39.0065 150.582 39.3438 151.25 40.025C151.917 40.6997 152.258 41.5301 152.258 42.5032C152.258 43.4764 151.917 44.3003 151.25 44.9815ZM141.729 39.1362H142.615V45.8767H141.729V39.1362ZM139.206 39.1362V39.9861H137.235V45.8832H136.355V39.9861H134.391V39.1362H139.206ZM129.486 46C128.472 46 127.643 45.6626 126.982 44.9879C126.327 44.3133 125.993 43.4829 125.993 42.5032C125.993 41.5236 126.321 40.6932 126.982 40.0185C127.637 39.3438 128.472 39.0065 129.486 39.0065C130.096 39.0065 130.654 39.1557 131.168 39.4476C131.682 39.7396 132.08 40.1418 132.362 40.6413L131.592 41.0955C131.399 40.7257 131.117 40.4272 130.738 40.2067C130.359 39.9861 129.942 39.8758 129.486 39.8758C128.715 39.8758 128.086 40.1288 127.605 40.6284C127.117 41.1279 126.873 41.7572 126.873 42.5032C126.873 43.2493 127.117 43.8721 127.605 44.3716C128.093 44.8712 128.715 45.1242 129.486 45.1242C129.942 45.1242 130.359 45.0139 130.738 44.7933C131.117 44.5728 131.399 44.2808 131.592 43.911L132.362 44.3522C132.08 44.8517 131.688 45.2539 131.168 45.5524C130.654 45.8508 130.089 46 129.486 46ZM122.649 45.3513C122.186 45.7859 121.583 46 120.845 46C120.106 46 119.509 45.7859 119.041 45.3513C118.572 44.9166 118.341 44.3392 118.341 43.6126V39.1362H119.227V43.5737C119.227 44.0473 119.368 44.4235 119.644 44.7025C119.927 44.9815 120.325 45.1242 120.845 45.1242C121.365 45.1242 121.769 44.9815 122.045 44.7025C122.328 44.4235 122.462 44.0473 122.462 43.5737V39.1362H123.342V43.6126C123.342 44.3392 123.111 44.9166 122.649 45.3513ZM111.889 39.9731V42.4838H113.674C114.007 42.4838 114.283 42.3605 114.521 42.114C114.752 41.8675 114.868 41.569 114.868 41.2252C114.868 40.8749 114.752 40.5829 114.521 40.3364C114.29 40.0899 114.007 39.9731 113.674 39.9731H111.889ZM114.958 45.8767L113.462 43.2947H111.889V45.8767H111.003V39.1362H113.674C114.245 39.1362 114.733 39.3373 115.144 39.7461C115.548 40.1548 115.754 40.6478 115.754 41.2252C115.754 41.6599 115.625 42.0621 115.368 42.4189C115.112 42.7757 114.778 43.0287 114.373 43.1779L115.946 45.8767H114.958ZM108.473 39.1362V39.9861H106.502V45.8832H105.623V39.9861H103.658V39.1362H108.473ZM99.4405 46C98.8177 46 98.2849 45.8508 97.8419 45.5589C97.3989 45.2669 97.0907 44.8582 96.911 44.3457L97.675 43.9045C97.9382 44.722 98.5288 45.1242 99.4597 45.1242C99.9155 45.1242 100.269 45.0269 100.506 44.8387C100.744 44.6506 100.866 44.3976 100.866 44.0797C100.866 43.7618 100.744 43.5153 100.506 43.3596C100.262 43.1974 99.8577 43.0287 99.2928 42.8471C99.0167 42.7498 98.8049 42.6784 98.6572 42.6265C98.5096 42.5746 98.3298 42.4968 98.1115 42.38C97.8932 42.2697 97.7263 42.1529 97.6236 42.0297C97.5145 41.9129 97.4182 41.7572 97.3347 41.5626C97.2512 41.3679 97.2063 41.1538 97.2063 40.9073C97.2063 40.3234 97.4117 39.8628 97.8162 39.5125C98.2207 39.1687 98.7214 39 99.3056 39C99.8321 39 100.294 39.1362 100.686 39.4022C101.078 39.6747 101.373 40.025 101.565 40.4727L100.821 40.9073C100.538 40.2132 100.031 39.8693 99.3056 39.8693C98.9461 39.8693 98.6508 39.9601 98.4325 40.1353C98.2078 40.317 98.0987 40.557 98.0987 40.8684C98.0987 41.1603 98.2014 41.3874 98.4133 41.5431C98.6251 41.6988 98.9846 41.8545 99.4982 42.0232C99.678 42.088 99.8064 42.1335 99.8834 42.1659C99.9605 42.1918 100.082 42.2373 100.243 42.2956C100.403 42.354 100.525 42.3994 100.602 42.4384C100.68 42.4773 100.782 42.5292 100.911 42.6006C101.039 42.6719 101.135 42.7433 101.2 42.8082C101.264 42.873 101.341 42.9509 101.424 43.0417C101.508 43.139 101.572 43.2298 101.61 43.3272C101.649 43.4245 101.681 43.5348 101.713 43.658C101.739 43.7813 101.758 43.9175 101.758 44.0602C101.758 44.6506 101.546 45.1242 101.116 45.4745C100.68 45.8248 100.121 46 99.4405 46ZM93.4249 39.1362H94.3109V45.8767H93.5983L90.17 40.8424V45.8767H89.2776V39.1362H89.9646L93.4249 44.1965V39.1362ZM81.2655 44.3716C81.7599 44.8777 82.3698 45.1242 83.1016 45.1242C83.8335 45.1242 84.4434 44.8712 84.9377 44.3716C85.4321 43.8656 85.676 43.2428 85.676 42.5097C85.676 41.7637 85.4321 41.1409 84.9377 40.6348C84.4434 40.1288 83.8335 39.8823 83.1016 39.8823C82.3698 39.8823 81.7599 40.1353 81.2655 40.6348C80.7712 41.1409 80.5272 41.7637 80.5272 42.5097C80.5272 43.2428 80.7712 43.8656 81.2655 44.3716ZM85.5541 44.9815C84.88 45.6627 84.0646 46 83.1016 46C82.1386 46 81.3169 45.6627 80.6492 44.9815C79.9815 44.3003 79.6477 43.4764 79.6477 42.5032C79.6477 41.5301 79.9815 40.6997 80.6492 40.025C81.3169 39.3503 82.1322 39.0065 83.1016 39.0065C84.0646 39.0065 84.8864 39.3438 85.5541 40.025C86.2217 40.6997 86.562 41.5301 86.562 42.5032C86.562 43.4764 86.2217 44.3003 85.5541 44.9815ZM74.4925 46C73.4845 46 72.6499 45.6626 71.9887 44.9879C71.3338 44.3133 71 43.4829 71 42.5032C71 41.5236 71.3274 40.6932 71.9887 40.0185C72.6435 39.3438 73.4781 39.0065 74.4925 39.0065C75.1024 39.0065 75.6609 39.1557 76.1745 39.4476C76.6881 39.7396 77.0861 40.1418 77.3686 40.6413L76.5982 41.0955C76.4056 40.7257 76.1231 40.4272 75.7443 40.2067C75.3656 39.9861 74.9483 39.8758 74.4925 39.8758C73.7221 39.8758 73.0993 40.1288 72.6114 40.6284C72.1235 41.1279 71.8795 41.7572 71.8795 42.5032C71.8795 43.2493 72.1235 43.8721 72.6114 44.3716C73.0993 44.8712 73.7285 45.1242 74.4925 45.1242C74.9483 45.1242 75.3656 45.0139 75.7443 44.7933C76.1231 44.5728 76.4056 44.2808 76.5982 43.911L77.3686 44.3522C77.0861 44.8517 76.6945 45.2539 76.1745 45.5524C75.6673 45.8508 75.1024 46 74.4925 46Z" fill="#59585D"></path></g><defs><clipPath id="clip0_354_553"><rect width="182" height="58" fill="white"></rect></clipPath></defs></svg>