<svg xmlns="http://www.w3.org/2000/svg" width="192" height="58" viewBox="0 0 192 58" fill="none"><g clip-path="url(#clip0_354_525)"><path d="M35.5341 21.5163L33.2587 17.5598L28.7025 25.4728H37.8095L35.5341 21.5163ZM35.4691 28.4891C35.8537 28.1033 36.1409 27.6141 36.2817 27.0707H30.2357C30.3765 27.6141 30.6637 28.1033 31.0483 28.4891C31.6117 29.0543 32.3973 29.4076 33.2587 29.4076C34.1201 29.4076 34.9002 29.0598 35.4691 28.4891ZM58.4018 16.2826V56.4076H64.9246V20.0598L58.4018 16.2826ZM56.809 14.9022C56.809 14.462 57.1666 14.1033 57.6054 14.1033C57.7679 14.1033 57.9251 14.1522 58.0497 14.2391L66.1219 18.913C66.3765 19.0598 66.5174 19.3261 66.5174 19.6033V57.2065C66.5174 57.6467 66.1598 58.0054 65.721 58.0054H57.6054C57.1666 58.0054 56.809 57.6467 56.809 57.2065V14.9022ZM49.3544 10.587C49.3544 10.1467 49.712 9.78804 50.1508 9.78804C50.5896 9.78804 50.9472 10.1467 50.9472 10.587V57.2065C50.9472 57.6467 50.5896 58.0054 50.1508 58.0054C49.712 58.0054 49.3544 57.6467 49.3544 57.2065V10.587ZM43.2379 57.2065C43.2379 57.6467 42.8804 58.0054 42.4415 58.0054H29.721C29.3147 58.0054 28.9788 57.7011 28.93 57.3098L26.2321 45.0706H18.4253L15.7273 57.3098C15.6786 57.7011 15.3427 58.0054 14.9363 58.0054H0.796388C0.357562 58.0054 0 57.6467 0 57.2065V19.5978C0 19.2772 0.189616 19 0.465914 18.8696L16.6266 9.51087L32.8144 0.13587C32.9391 0.048913 33.0962 0 33.2587 0C33.4321 0 33.5892 0.0543478 33.7192 0.146739L42.7774 5.3913C43.0537 5.5163 43.2433 5.79348 43.2433 6.11957V57.2065H43.2379ZM30.5661 43.4674C31.005 43.4674 31.3625 43.8261 31.3625 44.2663C31.3625 44.7065 31.005 45.0652 30.5661 45.0652H27.8628L30.3657 56.4022H41.6506V6.57609L34.0551 2.17935V15.7663L39.8736 25.875C40.0903 26.2554 39.9603 26.7391 39.581 26.962C39.4564 27.0326 39.321 27.0652 39.1856 27.0652V27.0707H37.907C37.7391 28.0598 37.2677 28.9402 36.5905 29.6196C35.7345 30.4783 34.5589 31.0054 33.2533 31.0054C31.9476 31.0054 30.772 30.4783 29.916 29.6196C29.2388 28.9402 28.7675 28.0598 28.5996 27.0707H27.321C26.8822 27.0707 26.5246 26.712 26.5246 26.2717C26.5246 26.0978 26.5788 25.9402 26.6709 25.8098L32.4515 15.7663V2.17935L17.423 10.8913L1.59278 20.0598V56.4076H14.3025L16.8054 45.0706H14.102C13.6632 45.0706 13.3056 44.712 13.3056 44.2717V26.2717C13.3056 25.8315 13.6632 25.4728 14.102 25.4728C14.5409 25.4728 14.8984 25.8315 14.8984 26.2717V43.4674H30.5661Z" fill="#59585D"></path><path d="M167.068 48.2709C167.068 48.6296 167.198 48.9122 167.469 49.1187C167.735 49.3252 168.244 49.5046 168.997 49.6676C169.809 49.847 170.395 50.0915 170.763 50.4068C171.131 50.7274 171.321 51.1513 171.321 51.7002C171.321 52.3089 171.093 52.8035 170.638 53.1731C170.183 53.5481 169.604 53.7274 168.888 53.7274C167.794 53.7274 166.824 53.347 165.979 52.5861L166.478 51.9937C166.857 52.3415 167.242 52.597 167.621 52.76C168.005 52.9231 168.439 53.0046 168.921 53.0046C169.392 53.0046 169.777 52.8905 170.07 52.6676C170.362 52.4394 170.508 52.1459 170.508 51.7818C170.508 51.4285 170.378 51.1513 170.118 50.9448C169.858 50.7437 169.371 50.5644 168.656 50.4122C167.816 50.2274 167.204 49.9828 166.824 49.6731C166.451 49.3633 166.261 48.9231 166.261 48.3415C166.261 47.7655 166.478 47.2981 166.922 46.9285C167.366 46.5589 167.924 46.3796 168.601 46.3796C169.544 46.3796 170.378 46.6731 171.104 47.2546L170.638 47.8796C170.005 47.3633 169.322 47.1024 168.58 47.1024C168.13 47.1024 167.756 47.2111 167.48 47.4339C167.204 47.6622 167.068 47.9394 167.068 48.2709ZM159.7 48.6513C159.7 48.2057 159.538 47.8633 159.223 47.6133C158.904 47.3578 158.454 47.2328 157.874 47.2328H155.68V50.135H157.869C158.411 50.135 158.855 50.0046 159.191 49.7383C159.532 49.4665 159.7 49.1078 159.7 48.6513ZM160.773 53.635H159.787L157.723 50.8578H155.691V53.635H154.884V46.4883H157.945C158.725 46.4883 159.348 46.6839 159.819 47.0698C160.285 47.4557 160.524 47.972 160.524 48.6242C160.524 49.2002 160.345 49.6676 159.993 50.0209C159.641 50.3742 159.175 50.6078 158.59 50.7165L160.773 53.635ZM147.343 52.1568C147.868 51.5861 148.134 50.8905 148.134 50.0698C148.134 49.2437 147.868 48.5426 147.332 47.9665C146.801 47.3905 146.129 47.1078 145.322 47.1078C144.515 47.1078 143.848 47.3905 143.323 47.9557C142.797 48.5263 142.532 49.222 142.532 50.0426C142.532 50.8687 142.797 51.5644 143.334 52.1405C143.865 52.7165 144.536 52.9992 145.344 52.9992C146.151 53.01 146.817 52.7274 147.343 52.1568ZM147.949 47.4448C148.627 48.1676 148.968 49.0318 148.968 50.0481C148.968 51.0644 148.627 51.9339 147.944 52.6622C147.256 53.385 146.384 53.7546 145.327 53.7546C144.271 53.7546 143.399 53.3959 142.721 52.6731C142.044 51.9502 141.703 51.0807 141.703 50.0698C141.703 49.0535 142.044 48.1839 142.732 47.4557C143.415 46.7274 144.293 46.3633 145.349 46.3633C146.4 46.3633 147.272 46.722 147.949 47.4448ZM134.915 46.4883H135.716V53.635H134.915V46.4883ZM128.099 48.6513C128.099 48.2057 127.942 47.8633 127.623 47.6133C127.303 47.3578 126.853 47.2328 126.279 47.2328H124.085V50.135H126.274C126.815 50.135 127.254 50.0046 127.595 49.7383C127.931 49.4665 128.099 49.1078 128.099 48.6513ZM129.167 53.635H128.181L126.116 50.8578H124.085V53.635H123.278V46.4883H126.344C127.124 46.4883 127.747 46.6839 128.218 47.0698C128.684 47.4557 128.923 47.972 128.923 48.6242C128.923 49.2002 128.744 49.6676 128.392 50.0209C128.04 50.3742 127.568 50.6078 126.989 50.7165L129.167 53.635ZM117.394 46.4883V47.222H113.049V49.6622H116.934V50.3959H113.049V52.9013H117.443V53.635H112.242V46.4883H117.394ZM104.137 47.2328V53.635H103.325V47.2328H100.93V46.4883H106.526V47.2328H104.137ZM94.4289 52.2111V46.4883H95.2144V53.635H94.5697L89.9702 47.7709V53.6296H89.1846V46.4883H89.9377L94.4289 52.2111ZM82.0876 46.4883H82.8948V53.635H82.0876V46.4883Z" fill="#59585D"></path><path fill-rule="evenodd" clip-rule="evenodd" d="M116.864 35.9956L112.739 30.2114C112.277 30.2602 111.796 30.2868 111.293 30.2868H106.447V35.9911H104.538V21.2913H106.447V28.6678H111.244C113.033 28.6678 114.399 28.273 115.343 27.4879C116.29 26.6984 116.762 25.5939 116.762 24.17C116.762 22.7107 116.29 21.5929 115.343 20.8167C114.399 20.036 113.033 19.6456 111.244 19.6456H106.759H106.447H104.538V18H111.293C113.598 18 115.4 18.55 116.709 19.6456C118.017 20.7413 118.667 22.2538 118.667 24.17C118.667 25.5761 118.311 26.7605 117.594 27.7275C116.882 28.6944 115.863 29.3953 114.537 29.8255L118.947 35.9956M161.781 33.5249L152.143 21.3933V35.9911H150.234V18H151.805L161.781 30.5264V33.5249ZM165.314 18V35.9956H163.739L163.428 36V32.6023V18H165.314ZM174.979 18H182.331C184.239 18 185.922 18.3815 187.386 19.1444C188.845 19.9073 189.98 20.9719 190.79 22.3337C191.6 23.6954 192 25.2523 192 26.9956C192 28.7432 191.595 30.2957 190.79 31.6619C189.984 33.0237 188.85 34.0882 187.386 34.8512C185.922 35.6141 184.235 35.9956 182.331 35.9956H174.979V21.2913H176.888V34.3499H182.228C183.808 34.3499 185.196 34.0394 186.38 33.4096C187.568 32.7841 188.485 31.9192 189.143 30.8147C189.793 29.7102 190.122 28.4372 190.122 26.9956C190.122 25.5584 189.797 24.2809 189.143 23.1809C188.489 22.0764 187.568 21.2114 186.38 20.586C185.196 19.9606 183.812 19.6456 182.228 19.6456H180.203H176.888H174.979V18ZM90.2544 21.2913V35.9956H88.3455V21.2913H90.2544ZM88.3455 19.6456H86.6723H82V18H96.5955V19.6456H90.2544H88.3455ZM128.083 19.6456V18H140.498V19.6456H135.549H129.992H128.083ZM140.493 35.9956H128.078V26.0463H129.987H135.545H140.493V27.6654H129.987V34.3499H140.493V35.9956Z" fill="#59585D"></path></g><defs><clipPath id="clip0_354_525"><rect width="192" height="58" fill="white"></rect></clipPath></defs></svg>