<svg xmlns="http://www.w3.org/2000/svg" width="168" height="58" viewBox="0 0 168 58" fill="none"><g clip-path="url(#clip0_354_530)"><path d="M70.9347 24.8246H65.6673L64.761 27.3794H62.6074L67.1121 14.8379H69.499L74.0036 27.3794H71.8321L70.9347 24.8246ZM70.3515 23.1542L68.3055 17.3301L66.2416 23.1542H70.3515Z" fill="#59585D"></path><path d="M83.4078 27.3869L80.5094 22.3757H78.93V27.3869H76.8661V14.8633H81.2093C82.1784 14.8633 82.995 15.033 83.659 15.3635C84.332 15.703 84.8256 16.1496 85.1576 16.7123C85.4896 17.2751 85.6511 17.9093 85.6511 18.6061C85.6511 19.419 85.4088 20.1693 84.9332 20.8303C84.4576 21.5003 83.7218 21.9469 82.7348 22.1881L85.8485 27.378H83.4078V27.3869ZM78.93 20.7321H81.2093C81.981 20.7321 82.5643 20.5355 82.9591 20.1514C83.3539 19.7673 83.5513 19.2492 83.5513 18.6061C83.5513 17.954 83.3539 17.4538 82.9681 17.0875C82.5822 16.7213 81.9989 16.5337 81.2093 16.5337H78.93V20.7321Z" fill="#59585D"></path><path d="M89.384 17.8028C89.9583 16.8291 90.739 16.0698 91.7171 15.5249C92.7042 14.98 93.781 14.7031 94.9476 14.7031C96.2846 14.7031 97.4781 15.0336 98.519 15.6857C99.5599 16.3378 100.323 17.2668 100.789 18.4727H98.3126C97.9895 17.8117 97.5319 17.3204 96.9576 16.9988C96.3743 16.6773 95.7103 16.5165 94.9476 16.5165C94.113 16.5165 93.3682 16.704 92.7222 17.0792C92.0671 17.4544 91.5646 17.9904 91.1967 18.6871C90.8288 19.3839 90.6403 20.1967 90.6403 21.1168C90.6403 22.0458 90.8198 22.8497 91.1967 23.5465C91.5646 24.2432 92.0761 24.7792 92.7222 25.1633C93.3772 25.5385 94.113 25.735 94.9476 25.735C95.7103 25.735 96.3743 25.5742 96.9576 25.2526C97.5409 24.9311 97.9895 24.4398 98.3126 23.7787H100.789C100.323 24.9847 99.5599 25.9047 98.519 26.5568C97.4781 27.2089 96.2846 27.5305 94.9476 27.5305C93.7631 27.5305 92.6863 27.2536 91.7082 26.7087C90.7301 26.1638 89.9583 25.4045 89.384 24.4308C88.8097 23.4572 88.5226 22.3584 88.5226 21.1347C88.5316 19.8752 88.8187 18.7675 89.384 17.8028Z" fill="#59585D"></path><path d="M114.16 14.8633V27.3869H112.096V21.9112H106.173V27.3869H104.109V14.8633H106.173V20.2318H112.096V14.8633H114.16Z" fill="#59585D"></path><path d="M119.849 14.8633V27.3869H117.785V14.8633H119.849Z" fill="#59585D"></path><path d="M131.595 14.8644V16.5437H128.248V27.388H126.184V16.5348H122.819V14.8555H131.595V14.8644Z" fill="#59585D"></path><path d="M136.647 16.5161V20.1964H140.99V21.8668H136.647V25.7079H141.537V27.3872H134.583V14.8457H141.537V16.5251H136.647V16.5161Z" fill="#59585D"></path><path d="M145.145 17.8028C145.719 16.8291 146.5 16.0698 147.478 15.5249C148.465 14.98 149.542 14.7031 150.708 14.7031C152.045 14.7031 153.239 15.0336 154.28 15.6857C155.321 16.3378 156.083 17.2668 156.55 18.4727H154.073C153.75 17.8117 153.293 17.3204 152.718 16.9988C152.135 16.6773 151.471 16.5165 150.708 16.5165C149.874 16.5165 149.129 16.704 148.483 17.0792C147.828 17.4544 147.325 17.9904 146.957 18.6871C146.589 19.3839 146.401 20.1967 146.401 21.1168C146.401 22.0458 146.58 22.8497 146.957 23.5465C147.325 24.2432 147.837 24.7792 148.483 25.1633C149.138 25.5385 149.874 25.735 150.708 25.735C151.471 25.735 152.135 25.5742 152.718 25.2526C153.302 24.9311 153.75 24.4398 154.073 23.7787H156.55C156.083 24.9847 155.321 25.9047 154.28 26.5568C153.239 27.2089 152.045 27.5305 150.708 27.5305C149.524 27.5305 148.447 27.2536 147.469 26.7087C146.491 26.1638 145.719 25.4045 145.145 24.4308C144.57 23.4572 144.283 22.3584 144.283 21.1347C144.283 19.8752 144.57 18.7675 145.145 17.8028Z" fill="#59585D"></path><path d="M168 14.8644V16.5437H164.653V27.388H162.589V16.5348H159.224V14.8555H168V14.8644Z" fill="#59585D"></path><path d="M68.6864 45.9175H67.7692C67.5756 45.9175 67.4431 45.8452 67.3514 45.6901L65.354 42.8994C65.2929 42.8167 65.2317 42.7444 65.1604 42.7134C65.0891 42.672 64.977 42.6514 64.8343 42.6514H64.0394V45.9175H63V38.0932H65.1808C65.6699 38.0932 66.0878 38.1449 66.4444 38.2483C66.8011 38.3516 67.0966 38.4963 67.3208 38.6824C67.5552 38.8684 67.7284 39.0958 67.8304 39.3645C67.9424 39.6333 67.9934 39.933 67.9934 40.2638C67.9934 40.5428 67.9526 40.8012 67.8609 41.039C67.7794 41.2767 67.6469 41.4937 67.4839 41.6901C67.3208 41.8762 67.117 42.0415 66.8826 42.1759C66.6482 42.3103 66.3833 42.4136 66.0878 42.486C66.2202 42.5583 66.3323 42.672 66.4342 42.8167L68.6864 45.9175ZM65.1298 41.8865C65.4356 41.8865 65.7005 41.8452 65.9247 41.7728C66.1591 41.7005 66.3527 41.5971 66.5056 41.4524C66.6584 41.318 66.7807 41.1527 66.8622 40.9666C66.9438 40.7806 66.9845 40.5635 66.9845 40.3361C66.9845 39.871 66.8317 39.5196 66.5361 39.2819C66.2304 39.0441 65.782 38.9304 65.1808 38.9304H64.0394V41.8865H65.1298Z" fill="#59585D"></path><path d="M76.6452 45.0596L76.6351 45.9175H71.8862V38.0932H76.6351V38.9511H72.9257V41.5454H75.9319V42.3723H72.9257V45.039H76.6452V45.0596Z" fill="#59585D"></path><path d="M86.52 45.9175H85.7149C85.6232 45.9175 85.5417 45.8968 85.4907 45.8452C85.4296 45.7935 85.3888 45.7418 85.3582 45.6694L84.6347 43.778H81.1801L80.4565 45.6694C80.4362 45.7315 80.3954 45.7935 80.3342 45.8452C80.2731 45.8968 80.2018 45.9175 80.1101 45.9175H79.305L82.3927 38.0932H83.4424L86.52 45.9175ZM84.3494 43.0131L83.1367 39.8297C83.0959 39.7366 83.0653 39.6229 83.0246 39.4989C82.9838 39.3749 82.943 39.2405 82.9125 39.0958C82.8411 39.3955 82.7596 39.6333 82.6781 39.8297L81.4654 43.0028H84.3494V43.0131Z" fill="#59585D"></path><path d="M94.061 45.0286V45.9175H89.6892V38.0932H90.7287V45.0286H94.061Z" fill="#59585D"></path><path d="M106.708 45.0596L106.697 45.9175H101.949V38.0932H106.697V38.9511H102.988V41.5454H105.994V42.3723H102.988V45.039H106.708V45.0596Z" fill="#59585D"></path><path d="M114.259 39.323C114.228 39.3747 114.187 39.416 114.157 39.447C114.116 39.478 114.075 39.4884 114.024 39.4884C113.963 39.4884 113.892 39.4574 113.81 39.3953C113.729 39.3333 113.627 39.261 113.505 39.1886C113.382 39.1163 113.23 39.0439 113.056 38.9819C112.883 38.9199 112.669 38.8889 112.425 38.8889C112.19 38.8889 111.986 38.9199 111.813 38.9819C111.64 39.0439 111.487 39.137 111.365 39.2403C111.242 39.354 111.151 39.478 111.09 39.6227C111.028 39.7674 110.998 39.9328 110.998 40.0982C110.998 40.3152 111.049 40.5013 111.161 40.646C111.263 40.7907 111.405 40.9147 111.579 41.0181C111.752 41.1214 111.946 41.2041 112.17 41.2868C112.394 41.3592 112.618 41.4419 112.853 41.5142C113.087 41.5969 113.311 41.6796 113.535 41.7829C113.759 41.8863 113.953 42.0103 114.126 42.1654C114.3 42.3204 114.442 42.5065 114.544 42.7235C114.646 42.9406 114.707 43.2196 114.707 43.5401C114.707 43.8811 114.646 44.2016 114.534 44.5013C114.422 44.801 114.249 45.0594 114.035 45.2868C113.81 45.5039 113.545 45.6796 113.219 45.814C112.893 45.9483 112.537 46 112.129 46C111.63 46 111.171 45.907 110.763 45.7209C110.356 45.5349 110.009 45.2868 109.714 44.9767L110.02 44.4703C110.05 44.4289 110.081 44.3979 110.121 44.3669C110.162 44.3359 110.213 44.3256 110.254 44.3256C110.305 44.3256 110.356 44.3463 110.417 44.3876C110.478 44.4289 110.539 44.4703 110.621 44.5323C110.692 44.5943 110.784 44.6563 110.876 44.7183C110.967 44.7907 111.079 44.8527 111.202 44.9044C111.324 44.9664 111.467 45.0078 111.619 45.0491C111.772 45.0904 111.956 45.1111 112.149 45.1111C112.394 45.1111 112.618 45.0801 112.812 45.0078C113.005 44.9354 113.168 44.8424 113.301 44.7183C113.433 44.5943 113.535 44.4393 113.607 44.2636C113.678 44.0879 113.719 43.8915 113.719 43.6848C113.719 43.447 113.668 43.2506 113.556 43.1059C113.454 42.9509 113.311 42.8269 113.138 42.7235C112.965 42.6202 112.771 42.5375 112.547 42.4651C112.323 42.3928 112.098 42.3204 111.864 42.2481C111.63 42.1757 111.405 42.0827 111.181 41.9897C110.957 41.8863 110.763 41.7623 110.59 41.6072C110.417 41.4522 110.274 41.2558 110.172 41.0181C110.07 40.7804 110.009 40.491 110.009 40.1499C110.009 39.8708 110.06 39.6021 110.172 39.3437C110.274 39.0853 110.437 38.8579 110.631 38.6512C110.835 38.4548 111.079 38.2894 111.375 38.1757C111.67 38.0517 112.007 38 112.394 38C112.822 38 113.219 38.0724 113.566 38.2067C113.912 38.3411 114.228 38.5478 114.503 38.8062L114.259 39.323Z" fill="#59585D"></path><path d="M123.522 38.9923H121.025V45.9277H119.986V38.9923H117.489V38.1034H123.522V38.9923Z" fill="#59585D"></path><path d="M132.327 45.9175H131.522C131.43 45.9175 131.349 45.8968 131.298 45.8452C131.236 45.7935 131.196 45.7418 131.165 45.6694L130.442 43.778H126.987L126.263 45.6694C126.243 45.7315 126.202 45.7935 126.141 45.8452C126.08 45.8968 126.009 45.9175 125.917 45.9175H125.112L128.2 38.0932H129.249L132.327 45.9175ZM130.156 43.0131L128.944 39.8297C128.903 39.7366 128.872 39.6229 128.831 39.4989C128.791 39.3749 128.75 39.2405 128.719 39.0958C128.648 39.3955 128.566 39.6333 128.485 39.8297L127.272 43.0028H130.156V43.0131Z" fill="#59585D"></path><path d="M139.949 38.9923H137.453V45.9277H136.413V38.9923H133.917V38.1034H139.949V38.9923Z" fill="#59585D"></path><path d="M148 45.0596L147.99 45.9175H143.241V38.0932H147.99V38.9511H144.28V41.5454H147.287V42.3723H144.28V45.039H148V45.0596Z" fill="#59585D"></path><path d="M0 0V15.0248H1.8216V1.81334H48.5461V56.1956H29.6302V20.0628H15.7214V10.2726L0 20.4737V58H0.906313H6.95439H13.9088H15.7304H29.6391H50.3677V0H0ZM1.8216 56.1956V21.4563L13.9088 13.6134V20.0628V38.4731L6.95439 41.9211V56.1867H1.8216V56.1956ZM8.77599 56.1956V43.0467L13.9088 40.5008V56.1956H8.77599ZM15.7214 56.1956V37.5709V21.8672H27.8175V56.1867H15.7214V56.1956Z" fill="#59585D"></path></g><defs><clipPath id="clip0_354_530"><rect width="168" height="58" fill="white"></rect></clipPath></defs></svg>