<svg xmlns="http://www.w3.org/2000/svg" width="141" height="58" viewBox="0 0 141 58" fill="none"><path d="M68.0594 17.7523H66.1945V22.8097H64.1577V7H68.6352C69.9072 7.17231 70.9729 7.69787 71.8495 8.56805C72.898 9.61916 73.4136 10.8857 73.4136 12.3675C73.4136 13.8581 72.8894 15.1246 71.8495 16.1843C71.1276 16.908 70.5775 17.3215 70.1908 17.4077L73.6886 22.8183H71.2135L68.0594 17.7523ZM66.1945 9.05914V15.7018H68.0594C68.9704 15.7018 69.7439 15.3744 70.3885 14.7282C71.033 14.0821 71.3596 13.2894 71.3596 12.3675C71.3596 11.4543 71.033 10.6703 70.3885 10.0241C69.7439 9.37792 68.9618 9.05914 68.0594 9.05914H66.1945Z" fill="#59585D"></path><path d="M85.7119 7V9.04191H79.249V13.8753H85.7033V15.9172H79.249V20.7506H85.7033V22.8097H77.2036V7H85.7119Z" fill="#59585D"></path><path d="M105.014 22.8183V7H107.051V20.7592H112.689V22.8183H105.014Z" fill="#59585D"></path><path d="M95.7929 7H94.6928L88.9519 22.8183H91.1262L93.1545 17.2268L93.9022 15.1763L95.2429 11.4715L96.5922 15.1763L97.3313 17.2268L99.3595 22.8183H101.534L95.7929 7Z" fill="#59585D"></path><path d="M72.6488 26.3086V28.3505H66.1945V33.1839H72.6488V35.2258H66.1945V40.0592H72.6488V42.1183H64.1491V26.3086H72.6488Z" fill="#59585D"></path><path d="M80.8906 34.0017C79.7733 33.6226 78.8709 33.0884 78.1748 32.3991C77.4787 31.7013 77.1349 30.8397 77.1349 29.8145C77.1349 28.8064 77.4959 27.9362 78.2178 27.2125C78.9397 26.4888 79.8077 26.127 80.839 26.127C81.8531 26.127 82.7211 26.4888 83.4431 27.2039C83.847 27.6002 84.1908 28.2292 84.4658 29.0907L82.6094 29.8231C82.386 29.22 82.1797 28.8236 81.9992 28.6341C81.6812 28.3153 81.2859 28.1602 80.839 28.1602C80.3749 28.1602 79.9882 28.3239 79.6616 28.6427C79.3436 28.9615 79.1803 29.3492 79.1803 29.8145C79.1803 30.2797 79.3436 30.6674 79.6616 30.9948C80.0226 31.348 80.521 31.6754 81.157 31.977C82.3946 32.3819 83.4431 33.0109 84.3025 33.8724C85.265 34.8288 85.7549 35.9919 85.7549 37.3531C85.7549 38.7144 85.2736 39.8861 84.3111 40.8511C83.3485 41.8161 82.1883 42.2985 80.839 42.2985C79.4811 42.2985 78.3209 41.8161 77.3584 40.8425C76.5935 40.0757 76.1036 39.0073 75.8973 37.6461L77.874 36.9224C78.0029 38.0855 78.3037 38.9126 78.7936 39.4037C79.3608 39.9723 80.0398 40.2566 80.8304 40.2566C81.6297 40.2566 82.3086 39.9723 82.8672 39.4037C83.4345 38.835 83.7181 38.1544 83.7181 37.3445C83.7181 36.5433 83.4345 35.8626 82.8672 35.3026C82.3344 34.7598 81.6726 34.3291 80.8906 34.0017Z" fill="#59585D"></path><path d="M93.9882 28.3505V42.1183H91.9342V28.3505H88.2559V26.3086H97.6579V28.3505H93.9882Z" fill="#59585D"></path><path d="M119.539 28.3505V42.1183H117.485V28.3505H113.806V26.3086H123.209V28.3505H119.539Z" fill="#59585D"></path><path d="M135.197 26.3086V28.3505H128.743V33.1839H135.197V35.2258H128.743V40.0592H135.197V42.1183H126.698V26.3086H135.197Z" fill="#59585D"></path><path d="M106.286 26.3086H105.186L99.4455 42.1183H101.628L103.648 36.5268L104.396 34.4762L105.736 30.7715L107.086 34.4762L107.825 36.5268L109.862 42.1183H112.027L106.286 26.3086Z" fill="#59585D"></path><path d="M65.5241 46.7616V50.9488H65.2749V46.7616H64.1577V46.5117H66.65V46.7616H65.5241Z" fill="#59585D"></path><path d="M70.2595 49.2514H68.7297L68.111 50.9486H67.8445L69.4946 46.4082L71.1361 50.9486H70.8697L70.2595 49.2514ZM70.1736 49.0015L69.4946 47.1405L68.8157 49.0015H70.1736Z" fill="#59585D"></path><path d="M76.4216 50.3975C76.0005 50.8024 75.502 51.0006 74.9176 51.0006C74.2902 51.0006 73.7574 50.7766 73.3191 50.3372C72.8808 49.8978 72.6573 49.355 72.6573 48.7347C72.6573 48.1057 72.8808 47.5716 73.3191 47.1322C73.7574 46.6928 74.2988 46.4688 74.9176 46.4688C75.502 46.4688 76.0091 46.6669 76.4388 47.0632L76.2497 47.2355C75.8716 46.8995 75.4247 46.7272 74.9176 46.7272C74.359 46.7272 73.8863 46.9254 73.4996 47.3217C73.1042 47.718 72.9066 48.1919 72.9066 48.7433C72.9066 49.3033 73.1042 49.7772 73.4996 50.1735C73.8949 50.5698 74.3676 50.768 74.9176 50.768C75.3903 50.768 75.8114 50.6215 76.1724 50.3286V48.9759H76.4216V50.3975Z" fill="#59585D"></path><path d="M78.3295 50.9488V46.5117H78.5787V50.6989H80.2975V50.9488H78.3295Z" fill="#59585D"></path><path d="M82.3946 46.5117V50.9488H82.1454V46.5117H82.3946Z" fill="#59585D"></path><path d="M84.4142 46.5117H84.6892L86.9667 50.4577V46.5117H87.2159V50.9488H86.9667L84.6634 46.9597V50.9402H84.4142V46.5117Z" fill="#59585D"></path><path d="M91.3841 46.5117V46.7616H89.4246V48.6053H91.3841V48.8552H89.4246V50.6989H91.3841V50.9488H89.1754V46.5117H91.3841Z" fill="#59585D"></path><path d="M96.6179 48.9586V50.9488H96.3687V46.5117H96.6179V48.7087H98.4742V46.5117H98.7235V50.9488H98.4742V48.9586H96.6179Z" fill="#59585D"></path><path d="M102.892 46.5117V46.7616H100.932V48.6053H102.892V48.8552H100.932V50.6989H102.892V50.9488H100.683V46.5117H102.892Z" fill="#59585D"></path><path d="M105.857 49.4066C105.831 49.4066 105.805 49.4066 105.779 49.4066H105.023V50.9488H104.774V46.5117H105.934C106.269 46.5548 106.561 46.7013 106.794 46.9339C107.077 47.2182 107.215 47.5542 107.215 47.9591C107.215 48.3641 107.077 48.7001 106.794 48.9844C106.596 49.1826 106.372 49.3118 106.123 49.3721L107.146 50.9488H106.836L105.857 49.4066ZM105.032 46.7616V49.1567H105.788C106.115 49.1567 106.398 49.0361 106.63 48.8035C106.862 48.5709 106.983 48.2865 106.983 47.9591C106.983 47.6318 106.862 47.3474 106.63 47.1148C106.398 46.8822 106.115 46.7616 105.788 46.7616H105.032Z" fill="#59585D"></path><path d="M111.142 46.5117V46.7616H109.183V48.6053H111.142V48.8552H109.183V50.6989H111.142V50.9488H108.933V46.5117H111.142Z" fill="#59585D"></path><path d="M25.0508 0L19.3613 3.29058V7.91646L15.3654 5.60829L9.67591 8.89887V13.5152L5.67996 11.207L0 14.4976V43.4928L1.70304 44.4753V15.48L5.69899 13.1623L9.69494 15.4705V49.1011L11.3885 50.0835V16.4624L19.3709 21.0788V54.6999L25.0603 57.9905L30.7593 54.6999V25.7047L21.0644 20.0964V10.8637L38.7322 21.0978V50.0931L40.4352 49.1107V20.1154L21.0644 8.89887V4.28252L25.0603 1.96481L48.4271 15.4896V44.4848L50.1206 43.5024V14.4976L25.0508 0ZM29.0563 26.6966V53.7175L25.0603 56.0352L21.0644 53.727V22.0707L29.0563 26.6966ZM19.3613 19.1235L11.3789 14.4976V9.88127L15.3749 7.5731L19.3709 9.88127V19.1235H19.3613Z" fill="#59585D"></path></svg>