<svg xmlns="http://www.w3.org/2000/svg" width="197" height="58" viewBox="0 0 197 58" fill="none"><g clip-path="url(#clip0_354_545)"><path d="M58 57.8904H43.0038V25.7656L37.9316 29.9319V58H32.1977V33.1115L36.8289 29.3837V22.9149L21.1711 10.6352V33.6597L26.5741 37.6068V57.8904H19.9582V34.3176L16.2091 31.5766V57.8904H0V0H58V57.8904ZM44.2167 56.7939H56.8973V1.20605H1.21293V56.7939H15.2167V29.2741L20.0684 32.8922V8.22306L38.0418 22.3667V28.397L44.2167 23.2439V56.7939ZM33.4106 56.7939H36.8289V30.9187L33.4106 33.7694V56.7939ZM21.1711 56.7939H25.3612V38.2646L21.1711 35.1947V56.7939Z" fill="#59585D"></path><path d="M197 24.9278V19.2926H191.1V21.3589H194.679V23.8947C193.808 24.5521 192.647 24.9278 191.293 24.9278C188.488 24.9278 186.554 22.8616 186.554 20.044C186.554 17.4142 188.488 15.2541 191.1 15.2541C192.841 15.2541 193.905 15.8176 194.969 16.6629L196.516 14.8784C195.066 13.6574 193.615 13 191.197 13C187.038 13 184.039 16.1933 184.039 20.044C184.039 23.9886 186.941 26.9941 191.293 26.9941C193.711 27.088 195.646 26.0549 197 24.9278ZM175.334 22.6737L167.886 13.3757H165.662V26.9001H168.08V17.2264L175.721 26.8062H177.752V13.2818H175.334V22.6737ZM156.183 13.2818V26.8062H158.601V13.2818H156.183ZM147.188 20.044C147.188 22.6737 145.253 24.6461 142.352 24.6461H139.643V15.4419H142.352C145.35 15.4419 147.188 17.4142 147.188 20.044ZM149.799 20.044C149.799 16.1933 146.801 13.2818 142.448 13.2818H137.225V26.8062H142.448C146.801 26.8062 149.799 23.8947 149.799 20.044ZM121.556 26.8062H131.325V24.6461H123.974V13.2818H121.556V26.8062ZM112.174 13.2818V26.8062H114.592V13.2818H112.174ZM105.307 13.2818H102.889V21.0771C102.889 23.6129 101.535 24.8339 99.4069 24.8339C97.1823 24.8339 95.9249 23.519 95.9249 20.9832V13.2818H93.5068V21.0771C93.5068 25.0217 95.8281 26.9941 99.4069 26.9941C103.082 26.9941 105.404 24.9278 105.404 20.8893V13.2818H105.307ZM82.4804 24.74H78.4181V21.0771H82.287C84.2214 21.0771 85.1886 21.7345 85.1886 22.9555C85.1886 24.0825 84.1247 24.74 82.4804 24.74ZM81.8034 19.0109H78.4181V15.4419H81.9001C83.4476 15.4419 84.3181 16.0994 84.3181 17.1325C84.4149 18.4473 83.3509 19.0109 81.8034 19.0109ZM82.287 13.2818H76V26.8062H82.4804C85.5755 26.8062 87.6067 25.4913 87.6067 23.0494C87.6067 21.171 86.446 20.3257 84.8018 19.7622C85.8657 19.1987 86.8329 18.3534 86.8329 16.7568C86.8329 14.5966 85.0919 13.2818 82.287 13.2818Z" fill="#59585D"></path><path d="M178.007 37.2462H179V44.8769H178.131L174.16 39.0923V44.8769H173.167V37.2462H173.912L177.883 43.0308V37.2462H178.007ZM163.984 43.1538C164.605 43.7692 165.225 44.0154 166.094 44.0154C166.963 44.0154 167.707 43.7692 168.204 43.1538C168.824 42.5385 169.072 41.9231 169.072 41.0615C169.072 40.2 168.824 39.4615 168.204 38.9692C167.583 38.3538 166.963 38.1077 166.094 38.1077C165.225 38.1077 164.481 38.3538 163.984 38.9692C163.364 39.5846 163.116 40.2 163.116 41.0615C163.116 41.9231 163.364 42.6615 163.984 43.1538ZM168.948 43.8923C168.204 44.6308 167.211 45 166.094 45C164.977 45 163.984 44.6308 163.24 43.8923C162.495 43.1538 162.123 42.1692 162.123 41.0615C162.123 39.9538 162.495 38.9692 163.24 38.2308C163.984 37.4923 164.977 37.1231 166.094 37.1231C167.211 37.1231 168.204 37.4923 168.948 38.2308C169.693 38.9692 170.065 39.9538 170.065 41.0615C170.065 42.1692 169.693 43.1538 168.948 43.8923ZM157.904 37.2462H158.896V44.8769H157.904V37.2462ZM154.925 37.2462V38.2308H152.692V44.8769H151.699V38.2308H149.465V37.2462H154.925ZM143.757 45C142.64 45 141.647 44.6308 140.902 43.8923C140.158 43.1538 139.786 42.1692 139.786 41.0615C139.786 39.9538 140.158 38.9692 140.902 38.2308C141.647 37.4923 142.64 37.1231 143.757 37.1231C144.501 37.1231 145.122 37.2462 145.742 37.6154C146.363 37.9846 146.859 38.3538 147.107 38.9692L146.239 39.4615C145.99 39.0923 145.742 38.7231 145.246 38.4769C144.749 38.2308 144.377 38.1077 143.757 38.1077C142.888 38.1077 142.143 38.3538 141.523 38.9692C140.902 39.5846 140.654 40.2 140.654 41.0615C140.654 41.9231 140.902 42.6615 141.523 43.1538C142.143 43.7692 142.764 44.0154 143.757 44.0154C144.253 44.0154 144.749 43.8923 145.246 43.6462C145.742 43.4 145.99 43.0308 146.239 42.6615L147.107 43.1538C146.735 43.7692 146.363 44.1385 145.742 44.5077C144.998 44.8769 144.377 45 143.757 45ZM135.814 44.2615C135.318 44.7538 134.573 45 133.705 45C132.836 45 132.216 44.7538 131.595 44.2615C131.099 43.7692 130.727 43.1538 130.727 42.2923V37.2462H131.719V42.2923C131.719 42.7846 131.843 43.2769 132.216 43.5231C132.588 43.8923 132.96 44.0154 133.581 44.0154C134.201 44.0154 134.698 43.8923 134.946 43.5231C135.318 43.1538 135.442 42.7846 135.442 42.2923V37.2462H136.435V42.2923C136.559 43.1538 136.311 43.7692 135.814 44.2615ZM123.281 38.2308V41.0615H125.39C125.763 41.0615 126.135 40.9385 126.383 40.6923C126.631 40.4462 126.755 40.0769 126.755 39.7077C126.755 39.3385 126.631 38.9692 126.383 38.7231C126.135 38.4769 125.763 38.3538 125.39 38.3538H123.281V38.2308ZM126.88 44.8769L125.142 41.9231H123.281V44.8769H122.288V37.2462H125.39C126.011 37.2462 126.631 37.4923 127.128 37.9846C127.624 38.4769 127.872 38.9692 127.872 39.7077C127.872 40.2 127.748 40.6923 127.376 41.0615C127.128 41.4308 126.631 41.8 126.259 41.9231L128.12 45H126.88V44.8769ZM119.31 37.2462V38.2308H117.076V44.8769H116.083V38.2308H113.849V37.2462H119.31ZM108.886 45C108.141 45 107.52 44.8769 107.024 44.5077C106.528 44.1385 106.155 43.7692 105.907 43.1538L106.776 42.6615C107.024 43.6462 107.769 44.0154 108.886 44.0154C109.382 44.0154 109.878 43.8923 110.127 43.6462C110.375 43.4 110.499 43.1538 110.499 42.7846C110.499 42.4154 110.375 42.1692 110.127 41.9231C109.878 41.8 109.382 41.5538 108.761 41.3077C108.389 41.1846 108.141 41.0615 108.017 41.0615C107.893 41.0615 107.645 40.9385 107.396 40.8154C107.148 40.6923 106.9 40.5692 106.776 40.4462C106.652 40.3231 106.528 40.0769 106.404 39.9538C106.28 39.7077 106.28 39.4615 106.28 39.2154C106.28 38.6 106.528 37.9846 107.024 37.6154C107.52 37.2462 108.017 37 108.761 37C109.382 37 109.878 37.1231 110.375 37.4923C110.871 37.7385 111.119 38.2308 111.367 38.7231L110.499 39.2154C110.127 38.4769 109.63 37.9846 108.761 37.9846C108.389 37.9846 108.017 38.1077 107.769 38.2308C107.52 38.4769 107.396 38.7231 107.396 39.0923C107.396 39.4615 107.52 39.7077 107.769 39.8308C108.017 39.9538 108.389 40.2 109.01 40.3231C109.258 40.4462 109.382 40.4462 109.506 40.4462C109.63 40.4462 109.754 40.5692 109.878 40.5692C110.127 40.6923 110.251 40.6923 110.251 40.6923C110.375 40.6923 110.499 40.8154 110.623 40.9385C110.747 41.0615 110.871 41.0615 110.995 41.1846C111.119 41.3077 111.119 41.3077 111.243 41.4308C111.367 41.5538 111.367 41.6769 111.492 41.8C111.492 41.9231 111.616 42.0462 111.616 42.1692C111.616 42.2923 111.616 42.4154 111.616 42.6615C111.616 43.2769 111.367 43.8923 110.871 44.2615C110.251 44.8769 109.63 45 108.886 45ZM101.936 37.2462H102.929V44.8769H102.06L98.0892 39.0923V44.8769H97.0964V37.2462H97.841L101.812 43.0308V37.2462H101.936ZM87.7892 43.1538C88.4096 43.7692 89.0301 44.0154 89.8988 44.0154C90.7675 44.0154 91.512 43.7692 92.0084 43.1538C92.6289 42.5385 92.8771 41.9231 92.8771 41.0615C92.8771 40.2 92.6289 39.4615 92.0084 38.9692C91.388 38.3538 90.7675 38.1077 89.8988 38.1077C89.0301 38.1077 88.2855 38.3538 87.7892 38.9692C87.1687 39.5846 86.9205 40.2 86.9205 41.0615C86.9205 41.9231 87.1687 42.6615 87.7892 43.1538ZM92.753 43.8923C92.0084 44.6308 91.0157 45 89.8988 45C88.7819 45 87.7892 44.6308 87.0446 43.8923C86.3 43.1538 85.9277 42.1692 85.9277 41.0615C85.9277 39.9538 86.3 38.9692 87.0446 38.2308C87.7892 37.4923 88.7819 37.1231 89.8988 37.1231C91.0157 37.1231 92.0084 37.4923 92.753 38.2308C93.4976 38.9692 93.8699 39.9538 93.8699 41.0615C93.994 42.1692 93.4976 43.1538 92.753 43.8923ZM79.9711 45C78.8542 45 77.8614 44.6308 77.1169 43.8923C76.3723 43.1538 76 42.1692 76 41.0615C76 39.9538 76.3723 38.9692 77.1169 38.2308C77.8614 37.4923 78.8542 37.1231 79.9711 37.1231C80.7157 37.1231 81.3361 37.2462 81.9566 37.6154C82.5771 37.9846 83.0735 38.3538 83.3217 38.9692L82.453 39.4615C82.2048 39.0923 81.9566 38.7231 81.4602 38.4769C80.9639 38.2308 80.5916 38.1077 79.9711 38.1077C79.1024 38.1077 78.3578 38.3538 77.7374 38.9692C77.1169 39.5846 76.8687 40.2 76.8687 41.0615C76.8687 41.9231 77.1169 42.6615 77.7374 43.1538C78.3578 43.7692 78.9783 44.0154 79.9711 44.0154C80.4675 44.0154 80.9639 43.8923 81.4602 43.6462C81.9566 43.4 82.2048 43.0308 82.453 42.6615L83.3217 43.1538C82.9494 43.7692 82.5771 44.1385 81.9566 44.5077C81.3361 44.8769 80.5916 45 79.9711 45Z" fill="#59585D"></path></g><defs><clipPath id="clip0_354_545"><rect width="197" height="58" fill="white"></rect></clipPath></defs></svg>